<svg id="Iconly_Light_Danger" data-name="Iconly/Light/Danger" xmlns="http://www.w3.org/2000/svg" width="24" height="24" viewBox="0 0 24 24">
  <g id="Danger" transform="translate(2 3)">
    <path id="Path" d="M0,.756A.755.755,0,0,1,.75,0,.746.746,0,0,1,1.5.745V.756a.75.75,0,1,1-1.5,0Z" transform="translate(9.25 12.514)" fill="#200e32"/>
    <path id="Stroke_3" data-name="Stroke 3" d="M2.045,16.668H16.527a2.077,2.077,0,0,0,1.819-2.859L11.069,1.073a2.08,2.08,0,0,0-3.639,0L.153,13.809A2.08,2.08,0,0,0,1.3,16.518a2.125,2.125,0,0,0,.676.15" transform="translate(0.75 0.75)" fill="none" stroke="#200e32" stroke-linecap="round" stroke-linejoin="round" stroke-miterlimit="10" stroke-width="1.5"/>
    <path id="Stroke_1" data-name="Stroke 1" d="M.5,3.1V0" transform="translate(9.49 7.296)" fill="none" stroke="#200e32" stroke-linecap="round" stroke-linejoin="round" stroke-miterlimit="10" stroke-width="1.5"/>
  </g>
</svg>
