<svg xmlns="http://www.w3.org/2000/svg" width="24" height="24" viewBox="0 0 24 24"><g transform="translate(2 2)"><path d="M2.449,0H5.716A2.459,2.459,0,0,1,8.163,2.47V5.764a2.46,2.46,0,0,1-2.448,2.47H2.449A2.46,2.46,0,0,1,0,5.764V2.47A2.46,2.46,0,0,1,2.449,0Z" transform="translate(11.837 0)" fill="none" stroke="#007cc8" stroke-linecap="round" stroke-linejoin="round" stroke-miterlimit="10" stroke-width="1.5"/><path d="M2.449,0H5.714A2.46,2.46,0,0,1,8.163,2.47V5.764a2.46,2.46,0,0,1-2.449,2.47H2.449A2.46,2.46,0,0,1,0,5.764V2.47A2.46,2.46,0,0,1,2.449,0Z" transform="translate(0 0)" fill="none" stroke="#007cc8" stroke-linecap="round" stroke-linejoin="round" stroke-miterlimit="10" stroke-width="1.5"/><path d="M2.449,0H5.714A2.46,2.46,0,0,1,8.163,2.471V5.764a2.46,2.46,0,0,1-2.449,2.47H2.449A2.46,2.46,0,0,1,0,5.764V2.471A2.46,2.46,0,0,1,2.449,0Z" transform="translate(0 11.766)" fill="none" stroke="#007cc8" stroke-linecap="round" stroke-linejoin="round" stroke-miterlimit="10" stroke-width="1.5"/><path d="M2.449,0H5.716A2.46,2.46,0,0,1,8.163,2.471V5.764a2.459,2.459,0,0,1-2.448,2.47H2.449A2.46,2.46,0,0,1,0,5.764V2.471A2.46,2.46,0,0,1,2.449,0Z" transform="translate(11.837 11.766)" fill="none" stroke="#007cc8" stroke-linecap="round" stroke-linejoin="round" stroke-miterlimit="10" stroke-width="1.5"/></g></svg>