<svg xmlns="http://www.w3.org/2000/svg" width="24" height="24" viewBox="0 0 24 24"><g transform="translate(2 2)"><path d="M2.044,4.305A2.262,2.262,0,0,1,4.305,2.043H5.334a2.262,2.262,0,0,0,1.593-.657l.719-.72a2.262,2.262,0,0,1,3.2-.008l.009.008.72.72a2.258,2.258,0,0,0,1.593.657h1.028a2.262,2.262,0,0,1,2.262,2.262V5.332a2.26,2.26,0,0,0,.657,1.594l.72.72a2.262,2.262,0,0,1,.009,3.2l-.009.009-.72.72a2.256,2.256,0,0,0-.657,1.592v1.029a2.261,2.261,0,0,1-2.262,2.261H13.166a2.259,2.259,0,0,0-1.593.658l-.72.719a2.261,2.261,0,0,1-3.2.009l-.009-.009-.719-.719a2.263,2.263,0,0,0-1.593-.658H4.305a2.261,2.261,0,0,1-2.261-2.261V13.165a2.257,2.257,0,0,0-.658-1.592l-.719-.72a2.261,2.261,0,0,1-.009-3.2l.009-.009.719-.72a2.261,2.261,0,0,0,.658-1.594V4.305" transform="translate(0.75 0.751)" fill="none" stroke="#007cc8" stroke-linecap="round" stroke-linejoin="round" stroke-miterlimit="10" stroke-width="1.5"/><path d="M0,5.14,5.14,0" transform="translate(7.43 7.43)" fill="none" stroke="#007cc8" stroke-linecap="round" stroke-linejoin="round" stroke-miterlimit="10" stroke-width="1.5"/><path d="M.75,1.49a.749.749,0,0,1-.53-.22.821.821,0,0,1-.16-.25A.668.668,0,0,1,0,.74.717.717,0,0,1,.06.45.776.776,0,0,1,.22.21a.774.774,0,0,1,1.06,0,.807.807,0,0,1,.17.24A.929.929,0,0,1,1.5.74a.863.863,0,0,1-.05.28.852.852,0,0,1-.17.25.749.749,0,0,1-.53.22" transform="translate(11.817 11.832)" fill="none" stroke="#007cc8" stroke-width="1"/><path d="M.75,1.491A.672.672,0,0,1,.47,1.43a.818.818,0,0,1-.25-.159.963.963,0,0,1-.16-.25A.674.674,0,0,1,0,.741.714.714,0,0,1,.06.451.674.674,0,0,1,.22.211a.772.772,0,0,1,1.06,0,.748.748,0,0,1,.22.53.666.666,0,0,1-.05.28,1.006,1.006,0,0,1-.17.25.773.773,0,0,1-.24.159.718.718,0,0,1-.29.061" transform="translate(6.677 6.692)" fill="none" stroke="#007cc8" stroke-width="1"/></g></svg>