<svg xmlns="http://www.w3.org/2000/svg" width="24" height="24" viewBox="0 0 24 24"><g transform="translate(2 2)"><path d="M18.46,5.149V13.3c0,3.02-1.89,5.15-4.91,5.15H4.9c-3.02,0-4.9-2.13-4.9-5.15V5.149C0,2.129,1.89,0,4.9,0h8.65C16.57,0,18.46,2.129,18.46,5.149Z" transform="translate(0.75 0.751)" fill="none" stroke="#007cc8" stroke-linecap="round" stroke-linejoin="round" stroke-miterlimit="10" stroke-width="1.5"/><path d="M0,4.14,1.529,2.527a1.4,1.4,0,0,1,2.032-.008l.885.9a1.433,1.433,0,0,0,2.131-.094L8.806.617a1.687,1.687,0,0,1,2.515-.1L13.4,2.655" transform="translate(3.281 10.292)" fill="none" stroke="#007cc8" stroke-linecap="round" stroke-linejoin="round" stroke-miterlimit="10" stroke-width="1.5"/><path d="M3.507,1.754A1.754,1.754,0,1,1,1.753,0,1.755,1.755,0,0,1,3.507,1.754Z" transform="translate(4.806 5.38)" fill="none" stroke="#007cc8" stroke-linecap="round" stroke-linejoin="round" stroke-miterlimit="10" stroke-width="1.5"/></g></svg>