<svg xmlns="http://www.w3.org/2000/svg" width="24" height="24" viewBox="0 0 24 24"><g transform="translate(3.5 2)"><path d="M10.487,0H3.834A3.82,3.82,0,0,0,0,3.729V14.442a3.827,3.827,0,0,0,3.834,3.911h7.989a3.887,3.887,0,0,0,3.729-3.911V5.276Z" transform="translate(0.75 0.762)" fill="none" stroke="#007cc8" stroke-linecap="round" stroke-linejoin="round" stroke-miterlimit="10" stroke-width="1.5"/><path d="M0,0V2.909A2.574,2.574,0,0,0,2.568,5.484c1.317,0,2.664,0,2.755,0" transform="translate(10.974 0.75)" fill="none" stroke="#007cc8" stroke-linecap="round" stroke-linejoin="round" stroke-miterlimit="10" stroke-width="1.5"/><path d="M5.4.5H0" transform="translate(5.387 13.058)" fill="none" stroke="#007cc8" stroke-linecap="round" stroke-linejoin="round" stroke-miterlimit="10" stroke-width="1.5"/><path d="M3.356.5H0" transform="translate(5.386 8.106)" fill="none" stroke="#007cc8" stroke-linecap="round" stroke-linejoin="round" stroke-miterlimit="10" stroke-width="1.5"/></g></svg>