<svg xmlns="http://www.w3.org/2000/svg" width="24" height="24" viewBox="0 0 24 24"><g transform="translate(3.5 2)"><path d="M10.486,0H3.834A3.82,3.82,0,0,0,0,3.729V14.578a3.713,3.713,0,0,0,3.834,3.775h7.988a3.769,3.769,0,0,0,3.73-3.775v-9.3Z" transform="translate(0.75 0.762)" fill="none" stroke="#007cc8" stroke-linecap="round" stroke-linejoin="round" stroke-miterlimit="10" stroke-width="1.5"/><path d="M0,0V2.909A2.575,2.575,0,0,0,2.569,5.484c1.316,0,2.663,0,2.754,0" transform="translate(10.974 0.75)" fill="none" stroke="#007cc8" stroke-linecap="round" stroke-linejoin="round" stroke-miterlimit="10" stroke-width="1.5"/><path d="M4.9.5H0" transform="translate(5.893 10.414)" fill="none" stroke="#007cc8" stroke-linecap="round" stroke-linejoin="round" stroke-miterlimit="10" stroke-width="1.5"/><path d="M.5,4.9V0" transform="translate(7.844 8.464)" fill="none" stroke="#007cc8" stroke-linecap="round" stroke-linejoin="round" stroke-miterlimit="10" stroke-width="1.5"/></g></svg>