<svg xmlns="http://www.w3.org/2000/svg" width="24" height="24" viewBox="0 0 24 24"><g transform="translate(1.5 3.5)"><path d="M21.132.524H0" transform="translate(0 8.991)" fill="none" stroke="#007cc8" stroke-linecap="round" stroke-linejoin="round" stroke-miterlimit="10" stroke-width="1.5"/><path d="M4.969,5.278V3.325A3.335,3.335,0,0,0,1.644,0H0" transform="translate(14.281 0)" fill="none" stroke="#007cc8" stroke-linecap="round" stroke-linejoin="round" stroke-miterlimit="10" stroke-width="1.5"/><path d="M0,5.278V3.321A3.32,3.32,0,0,1,3.317,0H5" transform="translate(1.882 0)" fill="none" stroke="#007cc8" stroke-linecap="round" stroke-linejoin="round" stroke-miterlimit="10" stroke-width="1.5"/><path d="M4.969,0V4.531A3.335,3.335,0,0,1,1.644,7.856H0" transform="translate(14.281 9.514)" fill="none" stroke="#007cc8" stroke-linecap="round" stroke-linejoin="round" stroke-miterlimit="10" stroke-width="1.5"/><path d="M0,0V4.535a3.32,3.32,0,0,0,3.317,3.32H5" transform="translate(1.882 9.514)" fill="none" stroke="#007cc8" stroke-linecap="round" stroke-linejoin="round" stroke-miterlimit="10" stroke-width="1.5"/></g></svg>