<svg xmlns="http://www.w3.org/2000/svg" width="24" height="24" viewBox="0 0 24 24"><g transform="translate(2 4)"><g transform="translate(11.35 0.25)"><path d="M.5,0V2.42" transform="translate(0 0)" fill="none" stroke="#007cc8" stroke-linecap="round" stroke-linejoin="round" stroke-miterlimit="10" stroke-width="1.5"/><path d="M.5,0V2.024" transform="translate(0 13.51)" fill="none" stroke="#007cc8" stroke-linecap="round" stroke-linejoin="round" stroke-miterlimit="10" stroke-width="1.5"/><path d="M.5,4.821V0" transform="translate(0 5.253)" fill="none" stroke="#007cc8" stroke-linecap="round" stroke-linejoin="round" stroke-miterlimit="10" stroke-width="1.5"/></g><path d="M16.7,16A3.277,3.277,0,0,0,20,12.743V10.151a2.15,2.15,0,1,1,0-4.3V3.257A3.277,3.277,0,0,0,16.7,0H3.3A3.277,3.277,0,0,0,0,3.257V5.935A2.09,2.09,0,0,1,2.177,8,2.159,2.159,0,0,1,0,10.151v2.593A3.277,3.277,0,0,0,3.3,16Z" fill="none" stroke="#007cc8" stroke-linecap="round" stroke-linejoin="round" stroke-miterlimit="10" stroke-width="1.5"/></g></svg>