<svg xmlns="http://www.w3.org/2000/svg" width="24" height="24" viewBox="0 0 24 24"><g transform="translate(2 3)"><path d="M15.107,16.667A3.392,3.392,0,0,0,18.5,13.274v-2.7a2.239,2.239,0,1,1,0-4.478l0-2.7A3.392,3.392,0,0,0,15.106,0H3.394A3.393,3.393,0,0,0,0,3.393v2.79A2.163,2.163,0,0,1,2.239,8.335,2.236,2.236,0,0,1,0,10.574v2.7a3.392,3.392,0,0,0,3.392,3.393Z" transform="translate(0.75 0.75)" fill="none" stroke="#007cc8" stroke-linecap="round" stroke-linejoin="round" stroke-miterlimit="10" stroke-width="1.5"/><path d="M3.205,5.179l1.74.915a.223.223,0,0,0,.323-.234L4.935,3.921,6.344,2.55a.222.222,0,0,0-.123-.379L4.275,1.888,3.4.124a.222.222,0,0,0-.4,0L2.135,1.888.19,2.171a.222.222,0,0,0-.123.379L1.475,3.921,1.142,5.86a.223.223,0,0,0,.323.234l1.74-.915Z" transform="translate(6.794 5.676)" fill="none" stroke="#007cc8" stroke-linecap="round" stroke-linejoin="round" stroke-miterlimit="10" stroke-width="1.5"/></g></svg>