<svg xmlns="http://www.w3.org/2000/svg" width="24" height="24" viewBox="0 0 24 24"><g transform="translate(4 2)"><path d="M0,0A7.4,7.4,0,0,0,7.4,7.4a7.4,7.4,0,0,0,7.4-7.4" transform="translate(0.714 8.932)" fill="none" stroke="#007cc8" stroke-linecap="round" stroke-linejoin="round" stroke-miterlimit="10" stroke-width="1.5"/><path d="M.476,2.81V0" transform="translate(7.642 16.336)" fill="none" stroke="#007cc8" stroke-linecap="round" stroke-linejoin="round" stroke-miterlimit="10" stroke-width="1.5"/><path d="M3.912,11.87H3.66A3.66,3.66,0,0,1,0,8.21V3.66A3.661,3.661,0,0,1,3.66,0h.252a3.66,3.66,0,0,1,3.66,3.66V8.21A3.659,3.659,0,0,1,3.912,11.87Z" transform="translate(4.332 0.714)" fill="none" stroke="#007cc8" stroke-linecap="round" stroke-linejoin="round" stroke-miterlimit="10" stroke-width="1.5"/><path d="M0,.476H1.9" transform="translate(10.002 4.401)" fill="none" stroke="#007cc8" stroke-linecap="round" stroke-linejoin="round" stroke-miterlimit="10" stroke-width="1.5"/><path d="M0,.476H2.855" transform="translate(9.049 7.572)" fill="none" stroke="#007cc8" stroke-linecap="round" stroke-linejoin="round" stroke-miterlimit="10" stroke-width="1.5"/></g></svg>