<svg xmlns="http://www.w3.org/2000/svg" width="24" height="24" viewBox="0 0 24 24"><g transform="translate(4 4)"><path d="M10.871,12.892a12.254,12.254,0,0,1-.252,1.759A1.728,1.728,0,0,1,8.98,16a1.963,1.963,0,0,1-1.143-.471L4.07,12.469h-2.1A1.832,1.832,0,0,1,.14,10.644a25.623,25.623,0,0,1,0-5.35A1.883,1.883,0,0,1,1.971,3.532h2.1L7.759.525A2.264,2.264,0,0,1,8.98,0a1.729,1.729,0,0,1,1.639,1.349,13.9,13.9,0,0,1,.252,1.76A93.092,93.092,0,0,1,10.871,12.892Z" fill="none" stroke="#007cc8" stroke-linecap="round" stroke-linejoin="round" stroke-miterlimit="10" stroke-width="1.5"/><path d="M0,0A9.312,9.312,0,0,1,1.538,5.3,9.308,9.308,0,0,1,0,10.6" transform="translate(14.717 2.574)" fill="none" stroke="#007cc8" stroke-linecap="round" stroke-linejoin="round" stroke-miterlimit="10" stroke-width="1.5"/></g></svg>