<svg xmlns="http://www.w3.org/2000/svg" width="24" height="24" viewBox="0 0 24 24"><g transform="translate(3 2.5)"><path d="M4.1,12.6H1.984A1.845,1.845,0,0,1,.141,10.753a25.917,25.917,0,0,1,0-5.406A1.9,1.9,0,0,1,1.984,3.568H4.1L7.809.53A2.278,2.278,0,0,1,9.039,0a1.742,1.742,0,0,1,1.651,1.363,14.268,14.268,0,0,1,.253,1.777A11.67,11.67,0,0,1,11.069,5.4" transform="translate(0.795 1.286)" fill="none" stroke="#007cc8" stroke-linecap="round" stroke-linejoin="round" stroke-miterlimit="10" stroke-width="1.5"/><path d="M4.574,0c-.019,1.336-.065,2.149-.123,2.618A12.555,12.555,0,0,1,4.2,4.394,1.741,1.741,0,0,1,2.548,5.757,1.968,1.968,0,0,1,1.4,5.281L0,4.142" transform="translate(7.286 11.691)" fill="none" stroke="#007cc8" stroke-linecap="round" stroke-linejoin="round" stroke-miterlimit="10" stroke-width="1.5"/><path d="M17.148,0,0,17.148" transform="translate(0.848 0.794)" fill="none" stroke="#007cc8" stroke-linecap="round" stroke-linejoin="round" stroke-miterlimit="10" stroke-width="1.5"/></g></svg>