<svg xmlns="http://www.w3.org/2000/svg" width="24" height="24" viewBox="0 0 24 24"><g transform="translate(2.5 3)"><path d="M6.74,5.383H2.692A2.691,2.691,0,1,1,2.692,0H6.74" transform="translate(12.398 6.013)" fill="none" stroke="#007cc8" stroke-linecap="round" stroke-linejoin="round" stroke-miterlimit="10" stroke-width="1.5"/><path d="M.612.456H.3" transform="translate(14.937 8.187)" fill="none" stroke="#007cc8" stroke-linecap="round" stroke-linejoin="round" stroke-miterlimit="10" stroke-width="1.5"/><path d="M5.248,0h8.643a5.248,5.248,0,0,1,5.248,5.248v7.177a5.248,5.248,0,0,1-5.248,5.248H5.248A5.248,5.248,0,0,1,0,12.425V5.248A5.248,5.248,0,0,1,5.248,0Z" transform="translate(0 0)" fill="none" stroke="#007cc8" stroke-linecap="round" stroke-linejoin="round" stroke-miterlimit="10" stroke-width="1.5"/><path d="M0,.456H5.4" transform="translate(4.536 4.082)" fill="none" stroke="#007cc8" stroke-linecap="round" stroke-linejoin="round" stroke-miterlimit="10" stroke-width="1.5"/></g></svg>