<svg xmlns="http://www.w3.org/2000/svg" width="24" height="24" viewBox="0 0 24 24"><g transform="translate(2 2)"><path d="M13.553,0H4.9C1.889,0,0,2.134,0,5.154V13.3c0,3.02,1.881,5.154,4.9,5.154h8.648c3.024,0,4.905-2.134,4.905-5.154V5.154C18.457,2.134,16.576,0,13.553,0Z" transform="translate(0.75 0.75)" fill="none" stroke="#fff" stroke-linecap="round" stroke-linejoin="round" stroke-miterlimit="10" stroke-width="1.5"/><path d="M3.691,1.846A1.846,1.846,0,1,1,1.845,0,1.847,1.847,0,0,1,3.691,1.846Z" transform="translate(5.012 4.939)" fill="none" stroke="#fff" stroke-linecap="round" stroke-linejoin="round" stroke-miterlimit="10" stroke-width="1.5"/><path d="M17.457,2.929a22.809,22.809,0,0,0-3-2.593A2.345,2.345,0,0,0,11.3,1.1c-.765.991-1.243,2.324-2.4,2.949-1.423.771-2.259-.472-3.446-.97-1.325-.555-2.331.443-3.105,1.4S.788,6.389,0,7.339" transform="translate(1.75 10.022)" fill="none" stroke="#fff" stroke-linecap="round" stroke-linejoin="round" stroke-miterlimit="10" stroke-width="1.5"/></g></svg>