<svg xmlns="http://www.w3.org/2000/svg" width="24" height="24" viewBox="0 0 24 24"><g transform="translate(3.5 2)"><path d="M7.368,15.854,1.437,19.1a.989.989,0,0,1-1.318-.394h0A1.043,1.043,0,0,1,0,18.243V3.844C0,1.1,1.876,0,4.577,0H10.92C13.538,0,15.5,1.025,15.5,3.661V18.243a.979.979,0,0,1-.979.979,1.08,1.08,0,0,1-.476-.119L8.073,15.854A.741.741,0,0,0,7.368,15.854Z" transform="translate(0.796 0.778)" fill="none" stroke="#fff" stroke-linecap="round" stroke-linejoin="round" stroke-miterlimit="10" stroke-width="1.5"/><path d="M0,.458H7.3" transform="translate(4.87 6.865)" fill="none" stroke="#fff" stroke-linecap="round" stroke-linejoin="round" stroke-miterlimit="10" stroke-width="1.5"/></g></svg>