<svg xmlns="http://www.w3.org/2000/svg" width="24" height="24" viewBox="0 0 24 24"><g transform="translate(2 2)"><path d="M8.7,6.975A8.311,8.311,0,0,0,.741,0,.714.714,0,0,0,0,.687H0V.751L.449,7.461a.824.824,0,0,0,.87.769l6.728-.449A.714.714,0,0,0,8.7,7.012Z" transform="translate(10.819 0.777)" fill="none" stroke="#fff" stroke-linecap="round" stroke-linejoin="round" stroke-miterlimit="10" stroke-width="1.5"/><path d="M6.145.024A.915.915,0,0,1,7.189.545a.824.824,0,0,1,.082.3c.092,1.3.284,4.146.394,5.684a1.043,1.043,0,0,0,1.117.97h0l5.648-.348a.915.915,0,0,1,.97.915h0A7.7,7.7,0,0,1,.974,11.264a7.323,7.323,0,0,1-.915-2.8A4.723,4.723,0,0,1,0,7.548,7.707,7.707,0,0,1,6.136.024" transform="translate(0.756 4.745)" fill="none" stroke="#fff" stroke-linecap="round" stroke-linejoin="round" stroke-miterlimit="10" stroke-width="1.5"/></g></svg>