<svg xmlns="http://www.w3.org/2000/svg" width="24" height="24" viewBox="0 0 24 24"><g transform="translate(2 2)"><path d="M10,0A10,10,0,1,1,0,10,10,10,0,0,1,10,0Z" fill="none" stroke="#fff" stroke-linecap="round" stroke-linejoin="round" stroke-miterlimit="10" stroke-width="1.5"/><path d="M5.16,3.969A14.915,14.915,0,0,1,1.432,6.512a3.983,3.983,0,0,1-.664.214.5.5,0,0,1-.459-.27,5.24,5.24,0,0,1-.166-.689A16.6,16.6,0,0,1,0,3.364,15.624,15.624,0,0,1,.158.879C.186.723.268.364.292.306A.5.5,0,0,1,.518.06.494.494,0,0,1,.768,0a3.49,3.49,0,0,1,.575.178A14.782,14.782,0,0,1,5.15,2.746c.068.073.255.269.286.309a.5.5,0,0,1,.011.6C5.414,3.7,5.223,3.9,5.16,3.969Z" transform="translate(7.89 6.498)" fill="none" stroke="#fff" stroke-linecap="round" stroke-linejoin="round" stroke-miterlimit="10" stroke-width="1.5"/></g></svg>