<svg xmlns="http://www.w3.org/2000/svg" width="24" height="24" viewBox="0 0 24 24"><g transform="translate(1.6 4)"><path d="M10.871,12.892a12.254,12.254,0,0,1-.252,1.759A1.728,1.728,0,0,1,8.98,16a1.963,1.963,0,0,1-1.143-.471L4.07,12.469h-2.1A1.831,1.831,0,0,1,.141,10.644a25.553,25.553,0,0,1,0-5.35A1.882,1.882,0,0,1,1.972,3.532h2.1L7.759.525A2.264,2.264,0,0,1,8.98,0a1.729,1.729,0,0,1,1.639,1.349,13.9,13.9,0,0,1,.252,1.76A93.1,93.1,0,0,1,10.871,12.892Z" transform="translate(0 0.25)" fill="none" stroke="#fff" stroke-linecap="round" stroke-linejoin="round" stroke-miterlimit="10" stroke-width="1.5"/><path d="M0,0A8.794,8.794,0,0,1,1.453,5.008,8.791,8.791,0,0,1,0,10.015" transform="translate(14.843 3.06)" fill="none" stroke="#fff" stroke-linecap="round" stroke-linejoin="round" stroke-miterlimit="10" stroke-width="1.5"/><path d="M0,0A14.165,14.165,0,0,1,2.341,8.068,14.169,14.169,0,0,1,0,16.137" transform="translate(18.274 0)" fill="none" stroke="#fff" stroke-linecap="round" stroke-linejoin="round" stroke-miterlimit="10" stroke-width="1.5"/></g></svg>