<svg xmlns="http://www.w3.org/2000/svg" width="24" height="24" viewBox="0 0 24 24"><g transform="translate(2 2)"><path d="M9.25,0A9.25,9.25,0,1,1,0,9.25,9.251,9.251,0,0,1,9.25,0Z" transform="translate(0.75 0.75)" fill="none" stroke="#fff" stroke-linecap="round" stroke-linejoin="round" stroke-miterlimit="10" stroke-width="1.5"/><path d="M1.2,2.395A1.2,1.2,0,1,1,2.4,1.2a1.2,1.2,0,0,1-1.2,1.2" transform="translate(4.323 8.802)" fill="none" stroke="#fff" stroke-width="1"/><path d="M1.2,2.395A1.2,1.2,0,1,1,2.4,1.2a1.2,1.2,0,0,1-1.2,1.2" transform="translate(8.802 8.802)" fill="none" stroke="#fff" stroke-width="1"/><path d="M1.2,2.395A1.2,1.2,0,1,1,2.4,1.2a1.2,1.2,0,0,1-1.2,1.2" transform="translate(13.281 8.802)" fill="none" stroke="#fff" stroke-width="1"/></g></svg>