<svg xmlns="http://www.w3.org/2000/svg" width="24" height="24" viewBox="0 0 24 24"><g transform="translate(2 2)"><path d="M9.085,1.166a1.169,1.169,0,1,1,1.169,1.169A1.169,1.169,0,0,1,9.085,1.166Zm-4.542,0A1.168,1.168,0,1,1,5.711,2.336,1.169,1.169,0,0,1,4.543,1.166ZM0,1.166A1.169,1.169,0,1,1,1.168,2.336,1.169,1.169,0,0,1,0,1.166Z" transform="translate(4.527 9.056)" fill="none" stroke="#fff" stroke-width="1"/><path d="M10.02,0A10.006,10.006,0,0,0,0,10.015a10.584,10.584,0,0,0,1.35,5,1.051,1.051,0,0,1,.07.9L.75,18.157a.624.624,0,0,0,.82.78l2.02-.6a1.7,1.7,0,0,1,1.49.361A10,10,0,1,0,10.02,0Z" fill="none" stroke="#fff" stroke-linecap="round" stroke-linejoin="round" stroke-miterlimit="10" stroke-width="1.5"/></g></svg>