<svg xmlns="http://www.w3.org/2000/svg" width="24" height="24" viewBox="0 0 24 24"><g transform="translate(2 3)"><path d="M14.888,3.36h0a.962.962,0,0,1-.87-.551C13.731,2.2,13.366,1.424,13.15,1A1.675,1.675,0,0,0,11.6,0c-.012,0-4.684,0-4.7,0A1.676,1.676,0,0,0,5.35,1c-.215.423-.58,1.2-.867,1.808a.963.963,0,0,1-.87.551h0A3.612,3.612,0,0,0,0,6.972v5.936A3.613,3.613,0,0,0,3.613,16.52H14.888A3.612,3.612,0,0,0,18.5,12.908V6.972A3.612,3.612,0,0,0,14.888,3.36Z" transform="translate(0.75 0.75)" fill="none" stroke="#fff" stroke-linecap="round" stroke-linejoin="round" stroke-miterlimit="10" stroke-width="1.5"/><path d="M0,3.182A3.179,3.179,0,1,0,3.182,0,3.19,3.19,0,0,0,0,3.182Z" transform="translate(6.821 7.152)" fill="none" stroke="#fff" stroke-linecap="round" stroke-linejoin="round" stroke-miterlimit="10" stroke-width="1.5"/><path d="M.9,2a1.085,1.085,0,0,1-.3-.078A1.008,1.008,0,0,1,.282,1.7,1.021,1.021,0,0,1,0,1,.971.971,0,0,1,.082.607,1.018,1.018,0,0,1,.318.265,1.144,1.144,0,0,1,.622.07,1.023,1.023,0,0,1,1.7.285a.962.962,0,0,1,.19.261L1.917.6A.974.974,0,0,1,2,1a1.016,1.016,0,0,1-.292.705A1,1,0,0,1,1.1,2L1,2Z" transform="translate(14 6)" fill="none" stroke="#fff" stroke-width="1"/></g></svg>