<svg xmlns="http://www.w3.org/2000/svg" width="24" height="24" viewBox="0 0 24 24"><g transform="translate(2 2)"><path d="M13.584,0H4.915C1.894,0,0,2.139,0,5.166v8.168C0,16.361,1.884,18.5,4.915,18.5h8.668c3.031,0,4.917-2.139,4.917-5.166V5.166C18.5,2.139,16.614,0,13.584,0Z" transform="translate(0.751 0.75)" fill="none" stroke="#fff" stroke-linecap="round" stroke-linejoin="round" stroke-miterlimit="10" stroke-width="1.5"/><path d="M1.2,2.395A1.2,1.2,0,1,1,2.4,1.2a1.2,1.2,0,0,1-1.2,1.2" transform="translate(4.323 8.802)" fill="none" stroke="#fff" stroke-width="1"/><path d="M1.2,2.395A1.2,1.2,0,1,1,2.4,1.2a1.2,1.2,0,0,1-1.2,1.2" transform="translate(8.802 8.802)" fill="none" stroke="#fff" stroke-width="1"/><path d="M1.2,2.395A1.2,1.2,0,1,1,2.4,1.2a1.2,1.2,0,0,1-1.2,1.2" transform="translate(13.281 8.802)" fill="none" stroke="#fff" stroke-width="1"/></g></svg>