<svg xmlns="http://www.w3.org/2000/svg" width="24" height="24" viewBox="0 0 24 24"><g transform="translate(2.5 3)"><path d="M10.214.441,12.53,5.1a.8.8,0,0,0,.6.437l5.185.749a.8.8,0,0,1,.528.306.77.77,0,0,1-.085,1.032L15,11.258a.762.762,0,0,0-.226.7l.9,5.128a.787.787,0,0,1-.652.892.868.868,0,0,1-.516-.08L9.888,15.478a.776.776,0,0,0-.742,0L4.494,17.912a.812.812,0,0,1-1.077-.33.8.8,0,0,1-.081-.5l.9-5.128a.788.788,0,0,0-.226-.7L.232,7.621a.786.786,0,0,1,0-1.112l0,0a.909.909,0,0,1,.452-.222L5.87,5.534a.812.812,0,0,0,.6-.438L8.784.441a.787.787,0,0,1,.458-.4.8.8,0,0,1,.61.044A.82.82,0,0,1,10.214.441Z" transform="translate(0 0)" fill="none" stroke="#fff" stroke-linecap="round" stroke-linejoin="round" stroke-miterlimit="10" stroke-width="1.5"/></g></svg>